<?xml version="1.0" encoding="UTF-8"?>
<svg xmlns="http://www.w3.org/2000/svg" width="512" height="512" viewBox="0 0 512 512">
  <defs>
    <style type="text/css"><![CDATA[
      .nav { fill: #0D47A1; }
    ]]></style>
  </defs>
  <!-- Rounded square border -->
  <rect x="32" y="32" width="448" height="448" rx="40" ry="40" fill="none" stroke="#0D47A1" stroke-width="28"/>
  <!-- Quadrants -->
  <g transform="translate(56,56)">
    <rect x="0" y="0" width="200" height="200" fill="#D32F2F" />
    <rect x="212" y="0" width="200" height="200" fill="#388E3C" />
    <rect x="0" y="212" width="200" height="200" fill="#FBC02D" />
    <rect x="212" y="212" width="200" height="200" fill="#1976D2" />
    <!-- Dividers -->
    <rect x="200" y="0" width="12" height="424" fill="#0D47A1" />
    <rect x="0" y="200" width="424" height="12" fill="#0D47A1" />
  </g>
  <!-- Rook silhouette centered -->
  <g transform="translate(0,0)">
    <path class="nav" d="M190 170 L322 170 L322 210 L358 210 L358 238 L322 238 L322 340 L372 340 L372 368 L140 368 L140 340 L190 340 L190 238 L154 238 L154 210 L190 210 Z" transform="translate(0,24) scale(1.05)"/>
  </g>
</svg>
